<?xml version="1.0" encoding="UTF-8" standalone="no"?>
<!-- Created with Inkscape (http://www.inkscape.org/) -->

<svg
   version="1.1"
   id="svg1"
   width="607.38904"
   height="395.7691"
   viewBox="0 0 607.38904 395.7691"
   sodipodi:docname="skinskill_logotipo_usar.svg"
   inkscape:version="1.4.2 (f4327f4, 2025-05-13)"
   xmlns:inkscape="http://www.inkscape.org/namespaces/inkscape"
   xmlns:sodipodi="http://sodipodi.sourceforge.net/DTD/sodipodi-0.dtd"
   xmlns="http://www.w3.org/2000/svg"
   xmlns:svg="http://www.w3.org/2000/svg">
  <defs
     id="defs1">
    <linearGradient
       id="swatch10"
       inkscape:swatch="solid">
      <stop
         style="stop-color:#105059;stop-opacity:1;"
         offset="0"
         id="stop10" />
    </linearGradient>
    <inkscape:path-effect
       effect="fillet_chamfer"
       id="path-effect12"
       is_visible="true"
       lpeversion="1"
       nodesatellites_param="F,0,0,1,0,0,0,1 @ F,0,0,1,0,0,0,1 @ F,0,0,1,0,0,0,1 @ F,0,0,1,0,5.4182955,0,1 @ F,0,0,1,0,0,0,1 @ F,0,0,1,0,0,0,1 @ F,0,0,1,0,0,0,1 @ F,0,0,1,0,0,0,1 @ F,0,0,1,0,1.5170169,0,1 @ F,0,0,1,0,0,0,1 @ F,0,0,1,0,0,0,1 @ F,0,0,1,0,0,0,1"
       radius="0"
       unit="px"
       method="auto"
       mode="F"
       chamfer_steps="1"
       flexible="false"
       use_knot_distance="true"
       apply_no_radius="true"
       apply_with_radius="true"
       only_selected="false"
       hide_knots="false" />
  </defs>
  <sodipodi:namedview
     id="namedview1"
     pagecolor="#ffffff"
     bordercolor="#111111"
     borderopacity="1"
     inkscape:showpageshadow="0"
     inkscape:pageopacity="0"
     inkscape:pagecheckerboard="1"
     inkscape:deskcolor="#d1d1d1"
     inkscape:zoom="1"
     inkscape:cx="-2"
     inkscape:cy="122.5"
     inkscape:window-width="1898"
     inkscape:window-height="1072"
     inkscape:window-x="0"
     inkscape:window-y="0"
     inkscape:window-maximized="0"
     inkscape:current-layer="g1" />
  <g
     inkscape:groupmode="layer"
     inkscape:label="Image"
     id="g1"
     style="display:inline"
     transform="translate(-6.6129695)">
    <path
       id="path1"
       style="fill:#abdddc;fill-opacity:1;stroke:#000000;stroke-width:0;stroke-linecap:round;stroke-linejoin:round;stroke-dasharray:none"
       d="m 341.10938,37.337891 c -8.3e-4,3.92e-4 -0.005,0.0015 -0.006,0.002 l -0.002,0.002 -0.002,0.002 c -5.6e-4,7.5e-4 -10e-4,0.005 -0.002,0.0059 l -0.002,0.002 c -3.6e-4,0.001 3e-4,0.0028 0,0.0039 0.009,-0.01197 0.0137,-0.01758 0.0137,-0.01758 z m -0.0137,0.01758 c -1.05214,1.402974 -63.24609,84.524549 -63.24609,129.115229 1e-5,44.97108 23.61485,69.37883 61.27148,68.00977 35.16196,-1.27836 61.38079,-24.79472 60.77344,-68.00977 C 399.24011,119.90784 340.69633,38.835878 341.0957,37.355469 Z M 292.26172,169.07031 c 0.033,-8.9e-4 0.066,-0.002 0.0996,0 8.94114,0.52233 -0.44333,12.26889 16.10547,32.31836 13.77917,16.69397 31.20724,8.45705 27.8789,18.53516 -1.39304,4.21807 -18.72142,4.25325 -34.00586,-12.63477 C 288.69711,192.215 288.0664,169.18367 292.26171,169.07031 Z"
       inkscape:label="gota" />
    <path
       id="path2"
       style="fill:#a2cc78;fill-opacity:0.984055;stroke:#000000;stroke-width:0;stroke-linecap:round;stroke-linejoin:round;stroke-dasharray:none"
       inkscape:label="hoja"
       d="m 241.99411,-151.44543 c -0.0595,0.45404 -0.11011,0.90802 -0.15136,1.35967 0.22713,-0.6009 0.28534,-1.05745 0.15136,-1.35967 z m -0.15136,1.35967 c -3.52878,9.33555 -47.90007,53.798355 -48.04553,104.874228 -0.14921,52.3911327 21.07627,80.086804 49.67127,96.986324 10.94791,15.327269 27.15917,28.466198 48.63272,39.417036 C 277.69973,79.444239 265.28342,66.454052 254.85339,52.221042 225.07945,5.0217129 222.88579,-31.377004 230.74776,-75.879545 c 0.23095,35.246125 6.47202,79.9493963 31.08656,124.005942 19.1783,-14.850757 38.59357,-58.534166 29.40797,-92.662052 -13.32622,-49.511779 -52.20019,-74.883835 -49.39954,-105.550105 z m 13.19443,202.228643 c 2.19385,-0.86986 0,0 0,0 z"
       transform="rotate(32.03927)"
       sodipodi:nodetypes="ccccscccccsccc" />
    <g
       id="g12"
       inkscape:label="texto"
       style="display:inline;fill:#105059;fill-opacity:1;stroke:#000000;stroke-opacity:1"
       sodipodi:insensitive="true">
      <path
         style="fill:#105059;fill-opacity:1;stroke:#000000;stroke-width:0;stroke-linecap:round;stroke-linejoin:round;stroke-dasharray:none;stroke-opacity:1"
         d="m 89.777338,278.99494 13.176712,-0.52707 0.87845,115.428 -13.879473,-0.17569 c 0.638004,-34.62924 1.105431,-74.62428 -0.175689,-114.72524 z"
         id="path4"
         sodipodi:nodetypes="ccccc"
         sodipodi:insensitive="true" />
      <path
         style="display:inline;fill:#105059;fill-opacity:1;stroke:#000000;stroke-width:0;stroke-linecap:round;stroke-linejoin:round;stroke-dasharray:none;stroke-opacity:1"
         d="m 103.27836,351.21166 34.28652,-34.78653 h 13.87947 l -34.96221,31.09704 36.8948,46.35496 h -17.39326 z"
         id="path5"
         sodipodi:nodetypes="ccccccc"
         sodipodi:insensitive="true" />
      <path
         id="path6"
         style="fill:#105059;fill-opacity:1;stroke:#000000;stroke-width:0;stroke-linecap:round;stroke-linejoin:round;stroke-dasharray:none;stroke-opacity:1"
         transform="matrix(0.99188747,0.12711905,-0.35346398,0.93544813,0,0)"
         d="m 282.43709,273.22974 c 0,4.52791 -2.63464,8.84618 -6.82484,8.84618 -4.19019,0 -8.3492,-4.31827 -8.3492,-8.84618 0,-4.52791 3.39682,-8.19851 7.58702,-8.19851 4.1902,0 7.58702,3.6706 7.58702,8.19851 z"
         sodipodi:nodetypes="sssss"
         sodipodi:insensitive="true" />
      <path
         style="fill:#105059;fill-opacity:1;stroke:#000000;stroke-width:0;stroke-linecap:round;stroke-linejoin:round;stroke-dasharray:none;stroke-opacity:1"
         d="m 168.48624,317.47094 h 13.70378 c -1.40552,25.40739 -0.81988,51.54903 1.05414,77.42493 h -14.58223 c 1.28839,-27.51566 1.34695,-53.65731 -0.17569,-77.42493 z"
         id="path7"
         sodipodi:nodetypes="ccccc"
         sodipodi:insensitive="true" />
      <path
         style="fill:#105059;fill-opacity:1;stroke:#000000;stroke-width:0;stroke-linecap:round;stroke-linejoin:round;stroke-dasharray:none;stroke-opacity:1"
         d="m 206.25948,316.97094 c 5.36883,0.019 10.32548,-0.0184 14.75792,0 -0.6442,4.79316 -0.81989,8.6493 -0.52707,11.56844 13.36849,-17.16807 37.96138,-22.58852 47.89164,1.10851 1.15586,2.75827 1.82236,7.54037 1.87733,10.53231 l 1.0053,54.71567 c -5.75302,0.59848 -10.69276,-0.10906 -14.58223,0 1.61992,-19.63909 1.03714,-35.42343 0.87845,-51.94995 -0.23425,-3.57235 -0.70276,-6.2077 -1.40552,-7.90603 -0.93244,-2.84913 -2.96461,-5.33168 -6.0965,-7.44765 -0.69409,-0.46895 -1.9152,-1.05779 -2.7097,-1.32351 -12.2824,-4.10775 -19.4631,1.75763 -27.21015,8.94685 -0.10486,20.00647 -1.40496,40.61853 -0.17569,60.18029 -4.92581,-0.28671 -8.74161,-0.0181 -13.00102,0 -0.17527,-25.97498 2.37592,-52.44995 -0.70276,-78.42493 z"
         id="path8"
         sodipodi:nodetypes="ccccccccccccc"
         inkscape:path-effect="#path-effect12"
         inkscape:original-d="m 206.25948,316.97094 c 5.36883,0.019 10.32548,-0.0184 14.75792,0 -0.6442,4.79316 -0.81989,8.6493 -0.52707,11.56844 14.25684,-18.30891 41.27941,-23.25704 49.66944,6.22344 l 1.10483,60.13305 c -5.75302,0.59848 -10.69276,-0.10906 -14.58223,0 1.61992,-19.63909 1.03714,-35.42343 0.87845,-51.94995 -0.23425,-3.57235 -0.70276,-6.2077 -1.40552,-7.90603 -1.05414,-3.22098 -3.51379,-5.97345 -7.37896,-8.25741 -13.16298,-5.06678 -20.59501,0.96981 -28.63739,8.4331 -0.10486,20.00647 -1.40496,40.61853 -0.17569,60.18029 -4.92581,-0.28671 -8.74161,-0.0181 -13.00102,0 -0.17527,-25.97498 2.37592,-52.44995 -0.70276,-78.42493 z"
         sodipodi:insensitive="true" />
      <path
         style="fill:#105059;fill-opacity:1;stroke:#000000;stroke-width:0;stroke-linecap:round;stroke-linejoin:round;stroke-dasharray:none;stroke-opacity:1"
         d="m 346.18112,301.06769 4.21655,-12.64965 c -57.42438,-20.43562 -71.18954,25.56462 -49.81116,45.53754 13.35483,12.47685 54.02582,14.86688 35.30669,46.38511 -8.35882,14.07412 -34.2445,6.92726 -44.17582,-4.2536 l -0.70276,12.82535 c 34.14108,15.18491 53.52698,2.67243 60.38304,-13.50379 7.46692,-17.61749 -1.04309,-37.52393 -31.42134,-47.50772 -26.80127,-8.80822 -16.41251,-37.82962 2.66241,-37.55031 8.5236,0.12481 16.39769,4.62649 23.54239,10.71707 z"
         id="path9"
         sodipodi:nodetypes="ccssccsssc"
         sodipodi:insensitive="true" />
      <path
         style="fill:#105059;fill-opacity:1;stroke:#000000;stroke-width:0;stroke-linecap:round;stroke-linejoin:round;stroke-dasharray:none;stroke-opacity:1"
         d="m 372.28606,278.99494 13.17672,-0.52707 1.37845,116.928 h -13.32534 c 0.63914,-34.51803 0.0712,-74.34613 -1.22983,-116.40093 z"
         id="path20"
         sodipodi:nodetypes="ccccc"
         sodipodi:insensitive="true" />
      <path
         style="fill:#105059;fill-opacity:1;stroke:#000000;stroke-width:0;stroke-linecap:round;stroke-linejoin:round;stroke-dasharray:none;stroke-opacity:1"
         d="m 387.34121,351.2304 34.28652,-34.78653 h 13.87947 l -34.96221,31.09704 36.01635,47.85496 h -16.51481 z"
         id="path21"
         sodipodi:nodetypes="ccccccc"
         sodipodi:insensitive="true" />
      <path
         id="path22"
         style="fill:#105059;fill-opacity:1;stroke:#000000;stroke-width:0;stroke-linecap:round;stroke-linejoin:round;stroke-dasharray:none;stroke-opacity:1"
         d="m 466.0455,292.54952 c -1.60045,4.23563 -5.74007,7.94023 -9.89628,7.40758 -4.15619,-0.53266 -6.75511,-5.10086 -5.15466,-9.33649 1.60046,-4.23562 6.26714,-7.23748 10.42335,-6.70482 4.15621,0.53265 6.22805,4.39811 4.62759,8.63373 z"
         sodipodi:nodetypes="sssss"
         sodipodi:insensitive="true" />
      <path
         style="fill:#105059;fill-opacity:1;stroke:#000000;stroke-width:0;stroke-linecap:round;stroke-linejoin:round;stroke-dasharray:none;stroke-opacity:1"
         d="m 451.17065,317.47094 h 13.70378 c -1.40552,25.40739 -0.81988,51.54903 1.05414,77.42493 h -14.58223 c 1.28839,-27.51566 1.34695,-53.65731 -0.17569,-77.42493 z"
         id="path23"
         sodipodi:nodetypes="ccccc"
         sodipodi:insensitive="true" />
      <path
         style="fill:#105059;fill-opacity:1;stroke:#000000;stroke-width:0;stroke-linecap:round;stroke-linejoin:round;stroke-dasharray:none;stroke-opacity:1"
         d="m 491.57924,277.96787 h 12.29826 c -0.6442,38.34083 0.76132,78.15016 1.05414,117.428 h -13.87947 c 0.81988,-37.63807 1.1127,-77.4474 0.52707,-117.428 z"
         id="path24"
         sodipodi:nodetypes="ccccc"
         sodipodi:insensitive="true" />
      <path
         style="fill:#105059;fill-opacity:1;stroke:#000000;stroke-width:0;stroke-linecap:round;stroke-linejoin:round;stroke-dasharray:none;stroke-opacity:1"
         d="m 531.81214,277.96787 h 12.29826 c -0.6442,38.34083 0.76132,78.15016 1.05414,117.428 h -13.87947 c 0.81988,-37.63807 1.1127,-77.4474 0.52707,-117.428 z"
         id="path25"
         sodipodi:nodetypes="ccccc"
         sodipodi:insensitive="true" />
      <path
         style="display:inline;fill:#105059;fill-opacity:1;stroke:#000000;stroke-width:0;stroke-linecap:round;stroke-linejoin:round;stroke-dasharray:none;stroke-opacity:1"
         d="m 61.77947,300.50621 4.21655,-12.64965 C 8.5716395,267.42094 -5.1935205,313.42118 16.18486,333.3941 c 13.35483,12.47685 54.02582,13.80622 35.30669,45.32445 -8.35882,14.07412 -34.2445,7.98792 -44.1758205,-3.19294 l -0.70276,12.82535 C 40.75405,403.53587 60.13995,391.02339 66.99601,374.84717 74.46293,357.22968 65.95292,337.32324 35.57467,327.33945 8.7733995,318.53123 19.16216,289.50983 38.23708,289.78914 c 8.5236,0.12481 16.39769,4.62649 23.54239,10.71707 z"
         id="path3"
         sodipodi:nodetypes="ccssccsssc"
         sodipodi:insensitive="true" />
      <path
         style="display:inline;fill:#105059;fill-opacity:1;stroke:#000000;stroke-width:0;stroke-linecap:round;stroke-linejoin:round;stroke-dasharray:none;stroke-opacity:1"
         d="m 605.59337,330.47663 4.9289,-10.75099 c -43.05088,-14.22686 -54.43,19.74071 -38.40393,33.64689 9.88579,8.57813 40.1169,9.96805 27.52998,30.70139 -6.51849,10.73735 -27.92483,1.2307 -32.05781,-6.85033 l -1.58753,12.46427 c 27.28156,13.1006 41.10259,1.75592 46.15287,-9.57785 5.55185,-12.45936 -1.13555,-27.53101 -23.91004,-33.78103 -20.25871,-5.55962 -12.65795,-24.03815 1.64245,-23.8437 6.39012,0.0868 10.34876,3.75121 15.70511,7.99135 z"
         id="path10"
         sodipodi:nodetypes="ccssccsssc"
         sodipodi:insensitive="true" />
    </g>
  </g>
</svg>
